dataset
version=1
nRows=25
nColumns=39
inDegrees=no
endheader
time	sternoclavicular_r2	sternoclavicular_r3	unrotscap_r3	unrotscap_r2	acromioclavicular_r2	acromioclavicular_r3	acromioclavicular_r1	unrothum_r1	unrothum_r3	unrothum_r2	elv_angle	shoulder_elv	shoulder1_r2	shoulder_rot	elbow_flexion	pro_sup	deviation	flexion	cmc_abduction	cmc_flexion	mp_flexion	ip_flexion	mcp2_flexion	mcp2_abduction	pm2_flexion	md2_flexion	mcp3_flexion	mcp3_abduction	pm3_flexion	md3_flexion	mcp4_flexion	mcp4_abduction	pm4_flexion	md4_flexion	mcp5_flexion	mcp5_abduction	pm5_flexion	md5_flexion
2.635000	-0.009064	-0.298205	0.126575	0.044161	0.035110	0.043312	-0.137253	-0.076818	-0.093005	0.113147	0.048660	0.027437	0.146525	0.146525	2.016086	1.297615	0.000000	0.000000	0.000000	0.000000	0.000000	0.000000	0.000000	0.000000	0.000000	0.000000	0.000000	0.000000	0.000000	0.000000	0.000000	0.000000	0.000000	0.000000	0.000000	0.000000	0.000000	0.000000
2.640000	-0.009000	-0.297661	0.126208	0.044209	0.035136	0.043399	-0.136706	-0.076657	-0.092452	0.113175	0.048881	0.027437	0.146525	0.146525	2.006851	1.297942	0.000000	0.000000	0.000000	0.000000	0.000000	0.000000	0.000000	0.000000	0.000000	0.000000	0.000000	0.000000	0.000000	0.000000	0.000000	0.000000	0.000000	0.000000	0.000000	0.000000	0.000000	0.000000
2.645000	-0.008939	-0.297118	0.125834	0.044271	0.035176	0.043489	-0.136149	-0.076475	-0.091896	0.113215	0.049119	0.027437	0.146525	0.146525	1.997519	1.298269	0.000000	0.000000	0.000000	0.000000	0.000000	0.000000	0.000000	0.000000	0.000000	0.000000	0.000000	0.000000	0.000000	0.000000	0.000000	0.000000	0.000000	0.000000	0.000000	0.000000	0.000000	0.000000
2.650000	-0.008883	-0.296576	0.125453	0.044347	0.035229	0.043582	-0.135583	-0.076273	-0.091338	0.113269	0.049373	0.027437	0.146525	0.146525	1.988096	1.298596	0.000000	0.000000	0.000000	0.000000	0.000000	0.000000	0.000000	0.000000	0.000000	0.000000	0.000000	0.000000	0.000000	0.000000	0.000000	0.000000	0.000000	0.000000	0.000000	0.000000	0.000000	0.000000
2.655000	-0.008831	-0.296037	0.125066	0.044438	0.035296	0.043678	-0.135007	-0.076051	-0.090780	0.113336	0.049644	0.027437	0.146525	0.146525	1.978587	1.298922	0.000000	0.000000	0.000000	0.000000	0.000000	0.000000	0.000000	0.000000	0.000000	0.000000	0.000000	0.000000	0.000000	0.000000	0.000000	0.000000	0.000000	0.000000	0.000000	0.000000	0.000000	0.000000
2.660000	-0.008784	-0.295501	0.124674	0.044542	0.035377	0.043778	-0.134424	-0.075810	-0.090221	0.113416	0.049931	0.027437	0.146525	0.146525	1.968997	1.299248	0.000000	0.000000	0.000000	0.000000	0.000000	0.000000	0.000000	0.000000	0.000000	0.000000	0.000000	0.000000	0.000000	0.000000	0.000000	0.000000	0.000000	0.000000	0.000000	0.000000	0.000000	0.000000
2.665000	-0.008740	-0.294968	0.124277	0.044661	0.035472	0.043880	-0.133834	-0.075549	-0.089663	0.113510	0.050233	0.027437	0.146525	0.146525	1.959333	1.299573	0.000000	0.000000	0.000000	0.000000	0.000000	0.000000	0.000000	0.000000	0.000000	0.000000	0.000000	0.000000	0.000000	0.000000	0.000000	0.000000	0.000000	0.000000	0.000000	0.000000	0.000000	0.000000
2.670000	-0.008701	-0.294440	0.123875	0.044795	0.035581	0.043984	-0.133237	-0.075270	-0.089107	0.113618	0.050551	0.027437	0.146525	0.146525	1.949599	1.299897	0.000000	0.000000	0.000000	0.000000	0.000000	0.000000	0.000000	0.000000	0.000000	0.000000	0.000000	0.000000	0.000000	0.000000	0.000000	0.000000	0.000000	0.000000	0.000000	0.000000	0.000000	0.000000
2.675000	-0.008666	-0.293917	0.123470	0.044942	0.035704	0.044091	-0.132636	-0.074972	-0.088554	0.113738	0.050884	0.027437	0.146525	0.146525	1.939800	1.300220	0.000000	0.000000	0.000000	0.000000	0.000000	0.000000	0.000000	0.000000	0.000000	0.000000	0.000000	0.000000	0.000000	0.000000	0.000000	0.000000	0.000000	0.000000	0.000000	0.000000	0.000000	0.000000
2.680000	-0.008636	-0.293399	0.123061	0.045103	0.035841	0.044200	-0.132030	-0.074657	-0.088004	0.113872	0.051231	0.027437	0.146525	0.146525	1.929944	1.300541	0.000000	0.000000	0.000000	0.000000	0.000000	0.000000	0.000000	0.000000	0.000000	0.000000	0.000000	0.000000	0.000000	0.000000	0.000000	0.000000	0.000000	0.000000	0.000000	0.000000	0.000000	0.000000
2.685000	-0.008610	-0.292887	0.122650	0.045279	0.035991	0.044311	-0.131421	-0.074324	-0.087458	0.114020	0.051593	0.027437	0.146525	0.146525	1.920035	1.300860	0.000000	0.000000	0.000000	0.000000	0.000000	0.000000	0.000000	0.000000	0.000000	0.000000	0.000000	0.000000	0.000000	0.000000	0.000000	0.000000	0.000000	0.000000	0.000000	0.000000	0.000000	0.000000
2.690000	-0.008589	-0.292383	0.122236	0.045468	0.036156	0.044423	-0.130810	-0.073974	-0.086918	0.114181	0.051969	0.027437	0.146525	0.146525	1.910080	1.301178	0.000000	0.000000	0.000000	0.000000	0.000000	0.000000	0.000000	0.000000	0.000000	0.000000	0.000000	0.000000	0.000000	0.000000	0.000000	0.000000	0.000000	0.000000	0.000000	0.000000	0.000000	0.000000
2.695000	-0.008571	-0.291885	0.121821	0.045671	0.036334	0.044537	-0.130197	-0.073608	-0.086383	0.114355	0.052358	0.027437	0.146525	0.146525	1.900084	1.301493	0.000000	0.000000	0.000000	0.000000	0.000000	0.000000	0.000000	0.000000	0.000000	0.000000	0.000000	0.000000	0.000000	0.000000	0.000000	0.000000	0.000000	0.000000	0.000000	0.000000	0.000000	0.000000
2.700000	-0.008559	-0.291396	0.121405	0.045887	0.036525	0.044651	-0.129584	-0.073226	-0.085855	0.114542	0.052760	0.027437	0.146525	0.146525	1.890053	1.301807	0.000000	0.000000	0.000000	0.000000	0.000000	0.000000	0.000000	0.000000	0.000000	0.000000	0.000000	0.000000	0.000000	0.000000	0.000000	0.000000	0.000000	0.000000	0.000000	0.000000	0.000000	0.000000
2.705000	-0.008550	-0.290915	0.120988	0.046116	0.036730	0.044766	-0.128972	-0.072829	-0.085335	0.114742	0.053175	0.027437	0.146525	0.146525	1.879994	1.302117	0.000000	0.000000	0.000000	0.000000	0.000000	0.000000	0.000000	0.000000	0.000000	0.000000	0.000000	0.000000	0.000000	0.000000	0.000000	0.000000	0.000000	0.000000	0.000000	0.000000	0.000000	0.000000
2.710000	-0.008545	-0.290444	0.120572	0.046358	0.036948	0.044881	-0.128361	-0.072419	-0.084824	0.114954	0.053601	0.027437	0.146525	0.146525	1.869913	1.302425	0.000000	0.000000	0.000000	0.000000	0.000000	0.000000	0.000000	0.000000	0.000000	0.000000	0.000000	0.000000	0.000000	0.000000	0.000000	0.000000	0.000000	0.000000	0.000000	0.000000	0.000000	0.000000
2.715000	-0.008545	-0.289981	0.120156	0.046613	0.037179	0.044996	-0.127753	-0.071995	-0.084321	0.115180	0.054039	0.027437	0.146525	0.146525	1.859815	1.302730	0.000000	0.000000	0.000000	0.000000	0.000000	0.000000	0.000000	0.000000	0.000000	0.000000	0.000000	0.000000	0.000000	0.000000	0.000000	0.000000	0.000000	0.000000	0.000000	0.000000	0.000000	0.000000
2.720000	-0.008548	-0.289529	0.119741	0.046880	0.037423	0.045111	-0.127149	-0.071558	-0.083829	0.115417	0.054488	0.027437	0.146525	0.146525	1.849707	1.303032	0.000000	0.000000	0.000000	0.000000	0.000000	0.000000	0.000000	0.000000	0.000000	0.000000	0.000000	0.000000	0.000000	0.000000	0.000000	0.000000	0.000000	0.000000	0.000000	0.000000	0.000000	0.000000
2.725000	-0.008556	-0.289088	0.119328	0.047159	0.037679	0.045224	-0.126549	-0.071110	-0.083347	0.115667	0.054947	0.027437	0.146525	0.146525	1.839596	1.303330	0.000000	0.000000	0.000000	0.000000	0.000000	0.000000	0.000000	0.000000	0.000000	0.000000	0.000000	0.000000	0.000000	0.000000	0.000000	0.000000	0.000000	0.000000	0.000000	0.000000	0.000000	0.000000
2.730000	-0.008567	-0.288657	0.118918	0.047449	0.037947	0.045337	-0.125955	-0.070651	-0.082877	0.115929	0.055415	0.027437	0.146525	0.146525	1.829486	1.303625	0.000000	0.000000	0.000000	0.000000	0.000000	0.000000	0.000000	0.000000	0.000000	0.000000	0.000000	0.000000	0.000000	0.000000	0.000000	0.000000	0.000000	0.000000	0.000000	0.000000	0.000000	0.000000
2.735000	-0.008581	-0.288238	0.118509	0.047751	0.038227	0.045447	-0.125367	-0.070183	-0.082418	0.116202	0.055893	0.027437	0.146525	0.146525	1.819385	1.303916	0.000000	0.000000	0.000000	0.000000	0.000000	0.000000	0.000000	0.000000	0.000000	0.000000	0.000000	0.000000	0.000000	0.000000	0.000000	0.000000	0.000000	0.000000	0.000000	0.000000	0.000000	0.000000
2.740000	-0.008600	-0.287830	0.118104	0.048063	0.038518	0.045556	-0.124786	-0.069705	-0.081972	0.116487	0.056379	0.027437	0.146525	0.146525	1.809299	1.304203	0.000000	0.000000	0.000000	0.000000	0.000000	0.000000	0.000000	0.000000	0.000000	0.000000	0.000000	0.000000	0.000000	0.000000	0.000000	0.000000	0.000000	0.000000	0.000000	0.000000	0.000000	0.000000
2.745000	-0.008621	-0.287434	0.117703	0.048386	0.038821	0.045662	-0.124214	-0.069220	-0.081540	0.116783	0.056872	0.027437	0.146525	0.146525	1.799234	1.304486	0.000000	0.000000	0.000000	0.000000	0.000000	0.000000	0.000000	0.000000	0.000000	0.000000	0.000000	0.000000	0.000000	0.000000	0.000000	0.000000	0.000000	0.000000	0.000000	0.000000	0.000000	0.000000
2.750000	-0.008645	-0.287051	0.117305	0.048718	0.039134	0.045764	-0.123650	-0.068728	-0.081121	0.117089	0.057373	0.027437	0.146525	0.146525	1.789195	1.304764	0.000000	0.000000	0.000000	0.000000	0.000000	0.000000	0.000000	0.000000	0.000000	0.000000	0.000000	0.000000	0.000000	0.000000	0.000000	0.000000	0.000000	0.000000	0.000000	0.000000	0.000000	0.000000
2.755000	-0.008673	-0.286679	0.116912	0.049060	0.039458	0.045864	-0.123097	-0.068230	-0.080716	0.117406	0.057881	0.027437	0.146525	0.146525	1.779190	1.305038	0.000000	0.000000	0.000000	0.000000	0.000000	0.000000	0.000000	0.000000	0.000000	0.000000	0.000000	0.000000	0.000000	0.000000	0.000000	0.000000	0.000000	0.000000	0.000000	0.000000	0.000000	0.000000
